<svg width="505" height="155" viewBox="125 185 505 155" fill="none" xmlns="http://www.w3.org/2000/svg">
<path d="M588.021 215.847C596.041 216.057 601.132 223.017 596.569 230.033C593.467 234.804 588.091 240.004 584.07 244.236C527.329 303.969 444.305 336.51 362.161 332.578C284.474 328.501 213.21 294.828 160.659 239.161C156.616 235.049 147.862 226.879 152.33 220.587C157.339 214.191 164.66 215.283 169.616 220.883C184.078 237.222 202.781 253.428 220.939 265.176C257.268 288.282 298.282 303.014 341.008 308.302C408.051 316.383 482.08 299.267 537.001 259.365C548.419 251.219 559.16 242.164 569.125 232.29C574.138 227.307 580.975 217.286 587.604 215.93L588.021 215.847Z" fill="#E91E63"/>
<path d="M160.511 189.884C161.702 189.895 162.878 190.149 163.967 190.628C165.343 191.232 167.738 193.952 168.127 195.282C170.412 202.944 160.344 205.463 155.266 207.608C146.288 211.401 143.109 218.807 140.186 227.426C139.215 230.289 136.898 232.053 134.119 233.085L133.869 233.074C117.142 232.098 128.274 210.422 134.662 203.459C141.944 195.521 149.409 190.546 160.511 189.884Z" fill="#E91E63"/>
<path d="M586.608 190.204C604.86 188.514 625.25 208.682 624.031 226.888C623.851 229.583 621.379 231.343 619.351 232.626C610.807 234.208 609.547 228.422 607.31 221.972C605.105 215.517 600.352 210.25 594.155 207.401C592.035 206.43 589.003 205.246 586.791 204.391C579.95 201.745 579.628 192.517 586.608 190.204Z" fill="#E91E63"/>
</svg>
